<?xml version="1.0" standalone="no"?>
<!DOCTYPE svg PUBLIC "-//W3C//DTD SVG 20010904//EN"
 "http://www.w3.org/TR/2001/REC-SVG-20010904/DTD/svg10.dtd">
<svg version="1.0" xmlns="http://www.w3.org/2000/svg"
 width="980.000000pt" height="980.000000pt" viewBox="0 0 980.000000 980.000000"
 preserveAspectRatio="xMidYMid meet">

<g transform="translate(0.000000,980.000000) scale(0.100000,-0.100000)"
fill="#000000" stroke="none">
<path d="M5000 5776 c0 -2 9 -6 20 -9 11 -3 20 -1 20 4 0 5 -9 9 -20 9 -11 0
-20 -2 -20 -4z"/>
<path d="M4980 5749 c0 -5 5 -7 10 -4 6 3 10 8 10 11 0 2 -4 4 -10 4 -5 0 -10
-5 -10 -11z"/>
<path d="M5017 5753 c-15 -24 4 -35 44 -29 38 6 46 0 40 -36 0 -4 6 -5 15 -1
28 11 11 44 -31 59 -40 14 -61 10 -35 -6 13 -8 12 -10 -2 -10 -9 0 -18 8 -20
18 -3 12 -6 14 -11 5z m100 -45 c-3 -8 -6 -5 -6 6 -1 11 2 17 5 13 3 -3 4 -12
1 -19z"/>
<path d="M4978 5723 c7 -3 16 -2 19 1 4 3 -2 6 -13 5 -11 0 -14 -3 -6 -6z"/>
<path d="M4951 5674 c0 -11 3 -14 6 -6 3 7 2 16 -1 19 -3 4 -6 -2 -5 -13z"/>
<path d="M5040 5645 c13 -16 12 -20 -19 -45 -24 -21 -31 -33 -27 -48 4 -13 1
-22 -9 -26 -17 -6 -21 -36 -5 -36 6 0 10 5 10 10 0 6 5 10 11 10 6 0 9 -7 5
-15 -4 -12 -2 -13 14 -3 12 8 16 16 10 23 -6 7 -5 16 2 23 9 9 7 12 -7 13 -19
0 -19 1 0 9 12 4 26 23 32 42 9 31 8 36 -11 48 -20 12 -20 12 -6 -5z"/>
<path d="M4947 5630 c3 -11 9 -20 15 -20 5 0 4 9 -2 20 -6 11 -12 20 -14 20
-2 0 -2 -9 1 -20z"/>
<path d="M5077 5623 c-2 -10 -8 -27 -12 -38 -7 -18 -6 -18 8 -5 18 18 32 60
19 60 -5 0 -12 -8 -15 -17z"/>
<path d="M4940 5571 c0 -11 -5 -32 -11 -48 -8 -22 -12 -25 -21 -13 -8 12 -9
12 -4 -3 3 -10 6 -20 6 -23 0 -2 7 -1 15 2 8 4 15 17 15 29 0 13 5 27 10 30 7
4 9 -3 5 -22 -5 -27 -5 -27 5 -4 7 16 7 28 1 34 -5 5 -7 16 -4 23 3 8 0 14 -6
14 -6 0 -11 -9 -11 -19z"/>
<path d="M4911 5554 c0 -11 3 -14 6 -6 3 7 2 16 -1 19 -3 4 -6 -2 -5 -13z"/>
<path d="M5470 4090 c0 -5 5 -10 11 -10 5 0 7 5 4 10 -3 6 -8 10 -11 10 -2 0
-4 -4 -4 -10z"/>
<path d="M5380 4057 c-14 -12 -20 -18 -14 -14 7 5 29 5 50 1 27 -5 35 -4 30 5
-4 6 -15 10 -24 9 -9 -2 -16 3 -14 10 3 16 1 16 -28 -11z"/>
<path d="M5512 4054 c-38 -17 -41 -50 -4 -48 18 0 21 -3 15 -25 -3 -14 -16
-39 -28 -56 -12 -16 -25 -40 -29 -52 -4 -13 -12 -23 -17 -23 -5 0 -9 -9 -9
-21 0 -11 -7 -27 -15 -35 -8 -8 -21 -24 -29 -36 -9 -13 -19 -17 -28 -12 -7 5
-20 9 -28 9 -8 0 -20 11 -27 25 -11 22 -13 23 -13 5 0 -22 35 -49 50 -40 6 4
10 -1 10 -9 0 -10 6 -13 17 -9 11 4 14 3 9 -6 -6 -9 2 -12 30 -9 31 2 38 7 36
20 -2 13 2 16 14 11 14 -5 16 -3 11 11 -4 9 -3 15 2 12 10 -6 44 41 44 61 0 6
4 11 9 10 13 -3 88 143 88 171 0 12 -7 25 -15 28 -8 4 -13 10 -10 14 3 4 -5
10 -18 14 -27 7 -25 7 -65 -10z m44 -10 c-3 -9 -6 -18 -6 -20 0 -11 -19 -2
-24 12 -3 8 -2 12 4 9 6 -3 10 -1 10 4 0 6 5 11 11 11 6 0 8 -7 5 -16z"/>
<path d="M5331 4002 c-17 -31 -13 -40 5 -14 9 13 14 26 11 29 -3 2 -10 -4 -16
-15z"/>
<path d="M5345 3963 c-4 -16 -11 -36 -16 -46 -12 -22 -4 -36 12 -20 11 11 23
93 14 93 -3 0 -7 -12 -10 -27z"/>
<path d="M5415 3980 c-3 -5 -3 -16 1 -22 5 -7 7 -27 5 -45 -3 -39 10 -43 29
-9 20 38 -14 110 -35 76z"/>
<path d="M5297 3940 c-3 -11 -1 -20 4 -20 5 0 9 9 9 20 0 11 -2 20 -4 20 -2 0
-6 -9 -9 -20z"/>
<path d="M5319 3838 c-9 -17 -9 -24 3 -32 8 -6 13 -17 11 -23 -3 -7 0 -13 6
-13 6 0 11 5 11 11 0 6 7 9 15 5 19 -7 19 -2 -1 40 -19 40 -29 42 -45 12z"/>
<path d="M2959 1573 c-6 -21 -21 -57 -32 -81 -23 -50 -18 -59 20 -44 15 6 68
16 116 22 48 7 86 15 83 17 -3 3 -48 0 -101 -7 -53 -7 -99 -10 -102 -6 -4 3 5
35 19 71 15 36 22 65 18 65 -5 0 -14 -17 -21 -37z"/>
</g>
</svg>
